<?xml version="1.0" encoding="utf-8"?>
<!-- Generator: Adobe Illustrator 28.0.0, SVG Export Plug-In . SVG Version: 6.00 Build 0)  -->
<svg version="1.1" id="Capa_1" xmlns="http://www.w3.org/2000/svg" xmlns:xlink="http://www.w3.org/1999/xlink" x="0px" y="0px"
	 viewBox="0 0 300 300" style="enable-background:new 0 0 300 300;" xml:space="preserve">
<style type="text/css">
	.st0{fill:#F4EB75;}
	.st1{fill:#664494;}
	.st2{fill:#29265B;}
	.st3{fill:#7D326F;}
</style>
<rect y="0" class="st0" width="300" height="300"/>
<g>
	<path class="st1" d="M147.87,118.2"/>
	<path class="st2" d="M108.06,125.06l-0.41,0.06c0.12-0.17,0.24-0.35,0.36-0.52C108.02,124.76,108.04,124.91,108.06,125.06z"/>
	<g>
		<path class="st2" d="M57.19,173.86c2.58,2.22,3.87,5.38,3.87,9.5h-9.17c0-1.74-0.46-3.11-1.37-4.13
			c-0.91-1.01-2.21-1.52-3.89-1.52c-1.94,0-3.37,0.61-4.28,1.83c-0.91,1.22-1.37,2.91-1.37,5.08v2.78c0,2.14,0.46,3.83,1.37,5.06
			c0.91,1.23,2.31,1.85,4.19,1.85c1.85,0,3.26-0.48,4.22-1.43c0.96-0.96,1.43-2.3,1.43-4.04h8.87c0,4.09-1.25,7.21-3.76,9.39
			c-2.51,2.17-6.05,3.26-10.63,3.26c-5.1,0-8.96-1.3-11.58-3.91c-2.62-2.61-3.93-6.46-3.93-11.56s1.31-8.95,3.93-11.56
			c2.62-2.61,6.48-3.91,11.58-3.91C51.1,170.54,54.61,171.65,57.19,173.86z"/>
		<path class="st2" d="M81.35,177.69c0.52,0.16,0.78,0.25,0.78,0.28v7.26h-2.78c-1.8,0-3.09,0.46-3.89,1.39
			c-0.8,0.93-1.2,2.3-1.2,4.13v10.21h-8.65v-22.95h7.08l0.56,3.48c0.52-1.33,1.35-2.34,2.48-3.02c1.13-0.68,2.4-1.02,3.82-1.02
			C80.24,177.45,80.83,177.53,81.35,177.69z"/>
		<path class="st2" d="M106.97,180.56c2.3,2.04,3.46,5.02,3.46,8.93c0,3.91-1.15,6.89-3.46,8.93c-2.3,2.04-5.47,3.06-9.5,3.06
			c-4.03,0-7.19-1.01-9.47-3.04c-2.29-2.03-3.43-5.01-3.43-8.95s1.14-6.92,3.43-8.95c2.29-2.03,5.45-3.04,9.47-3.04
			C101.5,177.49,104.67,178.52,106.97,180.56z M93.22,188.27v2.48c0,3.25,1.42,4.87,4.26,4.87c2.87,0,4.3-1.62,4.3-4.87v-2.48
			c0-3.27-1.43-4.91-4.3-4.91C94.64,183.36,93.22,185,93.22,188.27z"/>
		<path class="st2" d="M150.93,179.73c1.3,1.49,1.96,3.61,1.96,6.37v14.86h-8.65v-13.82c0-0.98-0.24-1.77-0.72-2.37
			c-0.48-0.59-1.15-0.89-2.02-0.89c-1.01,0-1.84,0.35-2.48,1.04c-0.64,0.7-0.96,1.55-0.96,2.56v13.47h-8.65v-13.82
			c0-0.98-0.24-1.77-0.72-2.37c-0.48-0.59-1.15-0.89-2.02-0.89c-1.01,0-1.84,0.35-2.48,1.04c-0.64,0.7-0.96,1.55-0.96,2.56v13.47
			h-8.65v-22.95h7.08l0.56,3.43c0.87-1.22,2.02-2.18,3.46-2.89c1.43-0.71,2.95-1.06,4.54-1.06c3.45,0,5.77,1.32,6.95,3.96
			c0.9-1.22,2.05-2.18,3.46-2.89c1.4-0.71,2.88-1.06,4.41-1.06C147.68,177.49,149.63,178.24,150.93,179.73z"/>
		<path class="st2" d="M179.88,179.71c1.33,1.48,2,3.61,2,6.39v14.86h-8.65v-13.82c0-0.98-0.25-1.77-0.76-2.37
			c-0.51-0.59-1.22-0.89-2.15-0.89c-1.07,0-1.94,0.35-2.61,1.04c-0.67,0.7-1,1.55-1,2.56v13.47h-8.65v-22.95h7.08l0.56,3.48
			c0.9-1.22,2.08-2.19,3.54-2.91c1.46-0.72,3.01-1.09,4.63-1.09C176.55,177.49,178.55,178.23,179.88,179.71z"/>
		<path class="st2" d="M208.54,180.45c2.22,1.97,3.32,4.98,3.32,9.04v1.48h-17.21c0,1.65,0.37,2.9,1.11,3.74
			c0.74,0.84,1.91,1.26,3.5,1.26c1.45,0,2.51-0.3,3.19-0.91s1.02-1.42,1.02-2.43h8.39c0,2.78-1.06,4.95-3.17,6.52
			c-2.12,1.56-5.2,2.35-9.26,2.35c-4.26,0-7.56-0.99-9.91-2.98c-2.35-1.98-3.52-4.99-3.52-9.02c0-3.94,1.14-6.92,3.43-8.95
			c2.29-2.03,5.45-3.04,9.47-3.04C203.12,177.49,206.33,178.48,208.54,180.45z M194.7,186.88h8.43c0-1.19-0.34-2.13-1.02-2.83
			c-0.68-0.7-1.63-1.04-2.85-1.04C196.54,183.01,195.02,184.3,194.7,186.88z"/>
		<path class="st2" d="M237.4,180.56c2.3,2.04,3.46,5.02,3.46,8.93c0,3.91-1.15,6.89-3.46,8.93c-2.3,2.04-5.47,3.06-9.5,3.06
			s-7.19-1.01-9.47-3.04c-2.29-2.03-3.43-5.01-3.43-8.95s1.14-6.92,3.43-8.95c2.29-2.03,5.45-3.04,9.47-3.04
			S235.1,178.52,237.4,180.56z M223.65,188.27v2.48c0,3.25,1.42,4.87,4.26,4.87c2.87,0,4.3-1.62,4.3-4.87v-2.48
			c0-3.27-1.43-4.91-4.3-4.91C225.06,183.36,223.65,185,223.65,188.27z"/>
		<path class="st2" d="M266.85,179.71c1.33,1.48,2,3.61,2,6.39v14.86h-8.65v-13.82c0-0.98-0.25-1.77-0.76-2.37
			c-0.51-0.59-1.22-0.89-2.15-0.89c-1.07,0-1.94,0.35-2.61,1.04c-0.67,0.7-1,1.55-1,2.56v13.47h-8.65v-22.95h7.08l0.56,3.48
			c0.9-1.22,2.08-2.19,3.54-2.91c1.46-0.72,3.01-1.09,4.63-1.09C263.51,177.49,265.51,178.23,266.85,179.71z"/>
	</g>
	<g>
		<g>
			<g>
				<g>
					<path class="st2" d="M103.17,153.07l8.88-0.28c1.62-0.05,3.12,0.87,3.81,2.34v0c1.25,2.67-0.68,5.74-3.63,5.78l-22.05,0.26
						c-1.59,0.02-3.05-0.9-3.73-2.34l-1.6-3.44c-0.67-1.44-0.44-3.15,0.6-4.36l14.36-16.77c1.92-2.24,5.52-1.75,6.76,0.92l0.02,0.05
						c0.68,1.47,0.43,3.2-0.65,4.41l-5.92,6.66C97.64,148.98,99.61,153.18,103.17,153.07z"/>
				</g>
				<g>
					<g>
						<path class="st3" d="M198.77,83.34l-8.88,0.28c-1.62,0.05-3.12-0.87-3.81-2.34v0c-1.25-2.67,0.68-5.74,3.63-5.78l22.05-0.26
							c1.59-0.02,3.05,0.9,3.73,2.34l1.6,3.44c0.67,1.44,0.44,3.15-0.6,4.36l-14.36,16.77c-1.92,2.24-5.52,1.75-6.76-0.92
							l-0.02-0.05c-0.68-1.47-0.43-3.2,0.65-4.41l5.92-6.66C204.3,87.43,202.33,83.23,198.77,83.34z"/>
					</g>
				</g>
			</g>
		</g>
		<g>
			<path class="st2" d="M192.66,103.28c-1.31-7.98-4.84-14.38-10.58-19.18c-7.43-6.22-17.54-9.33-30.33-9.33
				c-14.71,0-25.84,3.66-33.41,10.98C110.78,93.07,107,103.89,107,118.2c0,2.57,0.12,5.01,0.36,7.35
				c9.32-13.17,18.64-14.32,27.96-3.45v-7.8c0-6.1,1.32-10.86,3.95-14.27c2.63-3.42,6.75-5.12,12.35-5.12
				c4.85,0,8.59,1.42,11.22,4.27c1.6,1.73,2.71,3.83,3.34,6.32c0.78,3.07,4.25,5.27,8.24,5.27h9.88
				C189.39,110.76,193.31,107.24,192.66,103.28z"/>
			<path class="st3" d="M192.67,133.6c-1.28,7.89-4.7,14.18-10.27,18.89c-7.23,6.1-17.45,9.15-30.65,9.15
				c-14.71,0-25.84-3.66-33.41-10.99c-6.12-5.92-9.76-14.13-10.93-24.64c-0.02-0.15-0.03-0.3-0.05-0.46
				c9.32-13.17,18.64-14.32,27.96-3.45c0,6.02,1.32,10.76,3.95,14.21c2.63,3.46,6.67,5.18,12.1,5.18c5.35,0,9.4-1.34,12.16-4.02
				c1.68-1.64,2.85-3.69,3.51-6.15c0.81-3.04,4.27-5.19,8.23-5.19h9.05C189.39,126.13,193.31,129.64,192.67,133.6z"/>
		</g>
		<path class="st2" d="M155.49,129.89l-15.18-20.41c-0.84-1.13,0.24-2.83,2.23-3.53h0c1.5-0.52,3.03-0.29,3.66,0.56l15.22,20.39
			c0.84,1.13-0.24,2.83-2.23,3.53l-0.04,0.02C157.65,130.98,156.12,130.74,155.49,129.89z"/>
	</g>
	<path class="st1" d="M149.28,149.35"/>
	<path class="st2" d="M109.47,156.21l-0.41,0.06c0.12-0.17,0.24-0.35,0.36-0.52C109.44,155.9,109.45,156.06,109.47,156.21z"/>
	<g>
		<path class="st2" d="M51.42,221.98c-0.11-0.11-0.17-0.25-0.17-0.43V215h-2.29c-0.37,0-0.55-0.16-0.55-0.49
			c0-0.16,0.05-0.28,0.14-0.37c0.1-0.08,0.23-0.13,0.41-0.13h5.77c0.18,0,0.31,0.04,0.41,0.13c0.1,0.08,0.14,0.21,0.14,0.37
			c0,0.33-0.18,0.49-0.55,0.49h-2.29v6.55c0,0.18-0.05,0.32-0.16,0.43c-0.11,0.11-0.25,0.17-0.44,0.17
			C51.67,222.14,51.53,222.09,51.42,221.98z"/>
		<path class="st2" d="M60,216.53c0.1,0.1,0.15,0.24,0.15,0.41v4.66c0,0.16-0.05,0.29-0.16,0.39c-0.11,0.1-0.25,0.15-0.42,0.15
			c-0.16,0-0.29-0.05-0.39-0.14s-0.15-0.22-0.15-0.38v-0.44c-0.18,0.32-0.42,0.56-0.73,0.73c-0.31,0.17-0.65,0.25-1.04,0.25
			c-1.36,0-2.04-0.75-2.04-2.24v-2.98c0-0.18,0.05-0.31,0.15-0.41s0.25-0.15,0.43-0.15c0.18,0,0.31,0.05,0.42,0.15
			s0.15,0.24,0.15,0.41v2.96c0,0.45,0.09,0.78,0.27,1c0.18,0.21,0.46,0.32,0.85,0.32c0.45,0,0.81-0.14,1.08-0.43
			c0.27-0.29,0.41-0.68,0.41-1.16v-2.69c0-0.17,0.05-0.3,0.16-0.41s0.25-0.15,0.42-0.15S59.9,216.44,60,216.53z"/>
		<path class="st2" d="M69.08,216.73c0.38,0.24,0.67,0.59,0.88,1.03c0.21,0.44,0.31,0.95,0.31,1.53c0,0.57-0.1,1.08-0.31,1.51
			c-0.21,0.44-0.5,0.77-0.88,1.01c-0.38,0.24-0.81,0.35-1.3,0.35c-0.42,0-0.79-0.09-1.11-0.27c-0.32-0.18-0.56-0.44-0.73-0.77v2.55
			c0,0.16-0.05,0.29-0.15,0.38c-0.1,0.1-0.24,0.14-0.41,0.14c-0.18,0-0.32-0.05-0.43-0.15c-0.11-0.1-0.17-0.23-0.17-0.4v-6.71
			c0-0.17,0.05-0.3,0.16-0.41c0.11-0.1,0.25-0.15,0.42-0.15c0.17,0,0.31,0.05,0.41,0.15c0.11,0.1,0.16,0.24,0.16,0.41v0.47
			c0.17-0.34,0.41-0.59,0.73-0.78s0.69-0.27,1.11-0.27C68.27,216.36,68.7,216.48,69.08,216.73z M68.68,220.74
			c0.27-0.34,0.41-0.82,0.41-1.45c0-0.63-0.14-1.12-0.42-1.48c-0.28-0.35-0.67-0.53-1.16-0.53c-0.5,0-0.89,0.17-1.16,0.51
			c-0.27,0.34-0.41,0.83-0.41,1.46c0,0.63,0.14,1.12,0.41,1.46c0.27,0.34,0.66,0.52,1.16,0.52S68.41,221.08,68.68,220.74z"/>
		<path class="st2" d="M75.03,216.85c0,0.17-0.04,0.29-0.13,0.38c-0.08,0.08-0.23,0.13-0.44,0.15l-0.34,0.03
			c-0.48,0.05-0.84,0.21-1.07,0.5c-0.23,0.29-0.35,0.64-0.35,1.05v2.62c0,0.18-0.05,0.32-0.16,0.41c-0.11,0.09-0.24,0.14-0.41,0.14
			c-0.17,0-0.31-0.05-0.42-0.14c-0.11-0.09-0.17-0.23-0.17-0.41v-4.66c0-0.18,0.06-0.31,0.17-0.41c0.11-0.1,0.25-0.14,0.42-0.14
			c0.15,0,0.28,0.05,0.38,0.14s0.15,0.23,0.15,0.4v0.55c0.15-0.34,0.37-0.59,0.66-0.77c0.29-0.18,0.62-0.28,0.98-0.31l0.16-0.01
			C74.85,216.36,75.03,216.52,75.03,216.85z"/>
		<path class="st2" d="M76.61,221.81c-0.42-0.24-0.74-0.57-0.96-1.01c-0.23-0.44-0.34-0.95-0.34-1.53c0-0.59,0.11-1.1,0.34-1.54
			c0.23-0.44,0.55-0.78,0.96-1.01c0.42-0.24,0.9-0.35,1.45-0.35s1.03,0.12,1.45,0.35c0.42,0.24,0.74,0.57,0.96,1.01
			c0.23,0.44,0.34,0.95,0.34,1.54c0,0.58-0.11,1.09-0.34,1.53c-0.23,0.44-0.55,0.78-0.96,1.01c-0.42,0.24-0.9,0.35-1.45,0.35
			S77.02,222.05,76.61,221.81z M79.23,220.75c0.27-0.34,0.41-0.83,0.41-1.48c0-0.64-0.14-1.13-0.41-1.47
			c-0.27-0.34-0.66-0.51-1.17-0.51c-0.5,0-0.89,0.17-1.17,0.51c-0.27,0.34-0.41,0.83-0.41,1.47c0,0.65,0.14,1.14,0.41,1.48
			s0.66,0.5,1.17,0.5S78.96,221.08,79.23,220.75z"/>
		<path class="st2" d="M86.37,216.73c0.38,0.24,0.67,0.59,0.88,1.03c0.21,0.44,0.31,0.95,0.31,1.53c0,0.57-0.1,1.08-0.31,1.51
			c-0.21,0.44-0.5,0.77-0.88,1.01c-0.38,0.24-0.81,0.35-1.3,0.35c-0.42,0-0.79-0.09-1.11-0.27c-0.32-0.18-0.56-0.44-0.73-0.77v2.55
			c0,0.16-0.05,0.29-0.15,0.38c-0.1,0.1-0.24,0.14-0.41,0.14c-0.18,0-0.32-0.05-0.43-0.15c-0.11-0.1-0.17-0.23-0.17-0.4v-6.71
			c0-0.17,0.05-0.3,0.16-0.41c0.11-0.1,0.25-0.15,0.42-0.15c0.17,0,0.31,0.05,0.41,0.15c0.11,0.1,0.16,0.24,0.16,0.41v0.47
			c0.17-0.34,0.41-0.59,0.73-0.78s0.69-0.27,1.11-0.27C85.56,216.36,85.99,216.48,86.37,216.73z M85.97,220.74
			c0.27-0.34,0.41-0.82,0.41-1.45c0-0.63-0.14-1.12-0.42-1.48c-0.28-0.35-0.67-0.53-1.16-0.53c-0.5,0-0.89,0.17-1.16,0.51
			c-0.27,0.34-0.41,0.83-0.41,1.46c0,0.63,0.14,1.12,0.41,1.46c0.27,0.34,0.66,0.52,1.16,0.52S85.7,221.08,85.97,220.74z"/>
		<path class="st2" d="M88.9,215.08c-0.13-0.12-0.19-0.28-0.19-0.48s0.06-0.36,0.19-0.48c0.13-0.12,0.31-0.18,0.53-0.18
			c0.21,0,0.39,0.06,0.52,0.18c0.13,0.12,0.2,0.28,0.2,0.48s-0.06,0.36-0.19,0.48s-0.31,0.18-0.53,0.18S89.03,215.2,88.9,215.08z
			 M89.01,222c-0.11-0.09-0.17-0.23-0.17-0.41v-4.65c0-0.18,0.06-0.32,0.17-0.42c0.11-0.1,0.25-0.14,0.42-0.14
			c0.17,0,0.31,0.05,0.41,0.14c0.11,0.1,0.16,0.23,0.16,0.42v4.65c0,0.18-0.05,0.32-0.16,0.41c-0.11,0.09-0.24,0.14-0.41,0.14
			C89.26,222.14,89.12,222.1,89.01,222z"/>
		<path class="st2" d="M92.59,221.81c-0.42-0.24-0.74-0.57-0.96-1.01c-0.23-0.44-0.34-0.95-0.34-1.53c0-0.59,0.11-1.1,0.34-1.54
			c0.23-0.44,0.55-0.78,0.96-1.01c0.42-0.24,0.9-0.35,1.45-0.35s1.03,0.12,1.45,0.35c0.42,0.24,0.74,0.57,0.96,1.01
			c0.23,0.44,0.34,0.95,0.34,1.54c0,0.58-0.11,1.09-0.34,1.53c-0.23,0.44-0.55,0.78-0.96,1.01c-0.42,0.24-0.9,0.35-1.45,0.35
			S93.01,222.05,92.59,221.81z M95.21,220.75c0.27-0.34,0.41-0.83,0.41-1.48c0-0.64-0.14-1.13-0.41-1.47
			c-0.27-0.34-0.66-0.51-1.17-0.51c-0.5,0-0.89,0.17-1.17,0.51c-0.27,0.34-0.41,0.83-0.41,1.47c0,0.65,0.14,1.14,0.41,1.48
			s0.66,0.5,1.17,0.5S94.94,221.08,95.21,220.75z"/>
		<path class="st2" d="M105.83,216.53c0.1,0.1,0.15,0.24,0.15,0.41v4.66c0,0.16-0.05,0.29-0.16,0.39c-0.11,0.1-0.25,0.15-0.42,0.15
			c-0.16,0-0.29-0.05-0.39-0.14s-0.15-0.22-0.15-0.38v-0.44c-0.18,0.32-0.42,0.56-0.73,0.73c-0.31,0.17-0.65,0.25-1.04,0.25
			c-1.36,0-2.04-0.75-2.04-2.24v-2.98c0-0.18,0.05-0.31,0.15-0.41s0.25-0.15,0.43-0.15c0.18,0,0.31,0.05,0.42,0.15
			s0.15,0.24,0.15,0.41v2.96c0,0.45,0.09,0.78,0.27,1c0.18,0.21,0.46,0.32,0.85,0.32c0.45,0,0.81-0.14,1.08-0.43
			c0.27-0.29,0.41-0.68,0.41-1.16v-2.69c0-0.17,0.05-0.3,0.16-0.41s0.25-0.15,0.42-0.15S105.73,216.44,105.83,216.53z"/>
		<path class="st2" d="M112.61,218.62v2.98c0,0.18-0.05,0.31-0.15,0.41s-0.25,0.14-0.43,0.14c-0.18,0-0.31-0.05-0.42-0.15
			c-0.1-0.1-0.15-0.23-0.15-0.4v-2.92c0-0.47-0.09-0.82-0.28-1.04s-0.48-0.33-0.88-0.33c-0.47,0-0.84,0.15-1.12,0.44
			s-0.42,0.68-0.42,1.17v2.69c0,0.17-0.05,0.3-0.15,0.4c-0.1,0.1-0.24,0.15-0.42,0.15c-0.18,0-0.32-0.05-0.42-0.15
			c-0.11-0.1-0.16-0.23-0.16-0.4v-4.66c0-0.16,0.06-0.29,0.17-0.4c0.11-0.1,0.25-0.15,0.42-0.15c0.17,0,0.3,0.05,0.4,0.15
			s0.15,0.23,0.15,0.39v0.47c0.18-0.34,0.44-0.59,0.77-0.77c0.33-0.18,0.7-0.26,1.11-0.26
			C111.95,216.36,112.61,217.11,112.61,218.62z"/>
		<path class="st2" d="M114.25,215.08c-0.13-0.12-0.19-0.28-0.19-0.48s0.06-0.36,0.19-0.48c0.13-0.12,0.31-0.18,0.53-0.18
			c0.21,0,0.39,0.06,0.52,0.18c0.13,0.12,0.2,0.28,0.2,0.48s-0.06,0.36-0.19,0.48s-0.31,0.18-0.53,0.18S114.38,215.2,114.25,215.08z
			 M114.36,222c-0.11-0.09-0.17-0.23-0.17-0.41v-4.65c0-0.18,0.06-0.32,0.17-0.42c0.11-0.1,0.25-0.14,0.42-0.14
			c0.17,0,0.31,0.05,0.41,0.14c0.11,0.1,0.16,0.23,0.16,0.42v4.65c0,0.18-0.05,0.32-0.16,0.41c-0.11,0.09-0.24,0.14-0.41,0.14
			C114.61,222.14,114.47,222.1,114.36,222z"/>
		<path class="st2" d="M121.13,216.48c0.09-0.05,0.18-0.08,0.28-0.08c0.15,0,0.27,0.05,0.38,0.15c0.11,0.1,0.17,0.22,0.17,0.35
			c0,0.08-0.02,0.15-0.05,0.22l-2.19,4.63c-0.05,0.12-0.14,0.22-0.25,0.28c-0.11,0.06-0.23,0.1-0.35,0.1s-0.24-0.03-0.35-0.1
			c-0.11-0.06-0.19-0.16-0.25-0.28l-2.19-4.63c-0.03-0.06-0.05-0.13-0.05-0.22c0-0.14,0.06-0.26,0.18-0.35
			c0.12-0.1,0.26-0.15,0.41-0.15c0.22,0,0.39,0.11,0.49,0.32l1.77,3.94l1.76-3.93C120.98,216.61,121.05,216.53,121.13,216.48z"/>
		<path class="st2" d="M127.47,220.8c0.07,0.08,0.1,0.19,0.1,0.32c0,0.22-0.14,0.41-0.41,0.56c-0.27,0.15-0.56,0.27-0.88,0.35
			s-0.62,0.13-0.91,0.13c-0.89,0-1.58-0.26-2.09-0.77c-0.51-0.52-0.77-1.22-0.77-2.11c0-0.57,0.11-1.08,0.34-1.52
			c0.23-0.44,0.54-0.79,0.95-1.03s0.87-0.37,1.39-0.37c0.75,0,1.34,0.24,1.77,0.72c0.43,0.48,0.65,1.13,0.65,1.95
			c0,0.31-0.14,0.46-0.41,0.46h-3.54c0.08,1.18,0.64,1.77,1.71,1.77c0.28,0,0.53-0.04,0.73-0.11s0.42-0.18,0.65-0.3
			c0.02-0.02,0.09-0.05,0.19-0.1c0.1-0.05,0.19-0.07,0.26-0.07C127.31,220.68,127.4,220.72,127.47,220.8z M124.15,217.63
			c-0.27,0.28-0.43,0.68-0.48,1.19h2.95c-0.02-0.52-0.15-0.92-0.4-1.2c-0.24-0.28-0.58-0.42-1.01-0.42
			C124.77,217.21,124.42,217.35,124.15,217.63z"/>
		<path class="st2" d="M132.37,216.85c0,0.17-0.04,0.29-0.13,0.38c-0.08,0.08-0.23,0.13-0.44,0.15l-0.34,0.03
			c-0.48,0.05-0.84,0.21-1.07,0.5c-0.23,0.29-0.35,0.64-0.35,1.05v2.62c0,0.18-0.05,0.32-0.16,0.41c-0.11,0.09-0.24,0.14-0.41,0.14
			c-0.17,0-0.31-0.05-0.42-0.14c-0.11-0.09-0.17-0.23-0.17-0.41v-4.66c0-0.18,0.06-0.31,0.17-0.41c0.11-0.1,0.25-0.14,0.42-0.14
			c0.15,0,0.28,0.05,0.38,0.14s0.15,0.23,0.15,0.4v0.55c0.15-0.34,0.37-0.59,0.66-0.77c0.29-0.18,0.62-0.28,0.98-0.31l0.16-0.01
			C132.18,216.36,132.37,216.52,132.37,216.85z"/>
		<path class="st2" d="M133.05,221.68c-0.14-0.08-0.23-0.17-0.29-0.26c-0.06-0.09-0.09-0.19-0.09-0.31c0-0.12,0.03-0.23,0.1-0.31
			c0.07-0.08,0.16-0.13,0.26-0.13c0.1,0,0.26,0.06,0.47,0.18c0.23,0.12,0.45,0.22,0.67,0.3c0.22,0.08,0.49,0.11,0.82,0.11
			c0.37,0,0.65-0.06,0.86-0.19c0.21-0.13,0.31-0.31,0.31-0.55c0-0.15-0.04-0.27-0.12-0.37c-0.08-0.09-0.22-0.17-0.42-0.25
			c-0.2-0.07-0.49-0.15-0.88-0.23c-0.67-0.15-1.15-0.34-1.45-0.59c-0.29-0.25-0.44-0.59-0.44-1.01c0-0.33,0.1-0.62,0.29-0.89
			c0.19-0.26,0.45-0.47,0.79-0.61c0.34-0.14,0.72-0.22,1.14-0.22c0.31,0,0.6,0.04,0.89,0.12c0.29,0.08,0.55,0.2,0.77,0.35
			c0.25,0.17,0.38,0.36,0.38,0.58c0,0.12-0.04,0.23-0.11,0.31c-0.07,0.08-0.16,0.13-0.26,0.13c-0.07,0-0.14-0.02-0.21-0.05
			c-0.07-0.03-0.16-0.08-0.27-0.15c-0.21-0.12-0.4-0.22-0.58-0.29c-0.18-0.07-0.4-0.1-0.67-0.1c-0.32,0-0.58,0.07-0.77,0.21
			c-0.19,0.14-0.29,0.32-0.29,0.56c0,0.21,0.09,0.38,0.27,0.5c0.18,0.12,0.52,0.23,1.01,0.34c0.51,0.11,0.91,0.23,1.2,0.37
			c0.29,0.14,0.5,0.31,0.62,0.51s0.19,0.46,0.19,0.77c0,0.5-0.21,0.89-0.62,1.2c-0.42,0.3-0.97,0.45-1.67,0.45
			C134.19,222.16,133.55,222,133.05,221.68z"/>
		<path class="st2" d="M139.51,221.81c-0.42-0.24-0.74-0.57-0.96-1.01c-0.23-0.44-0.34-0.95-0.34-1.53c0-0.59,0.11-1.1,0.34-1.54
			c0.23-0.44,0.55-0.78,0.96-1.01c0.42-0.24,0.9-0.35,1.45-0.35s1.03,0.12,1.45,0.35c0.42,0.24,0.74,0.57,0.96,1.01
			c0.23,0.44,0.34,0.95,0.34,1.54c0,0.58-0.11,1.09-0.34,1.53c-0.23,0.44-0.55,0.78-0.96,1.01c-0.42,0.24-0.9,0.35-1.45,0.35
			S139.93,222.05,139.51,221.81z M142.13,220.75c0.27-0.34,0.41-0.83,0.41-1.48c0-0.64-0.14-1.13-0.41-1.47
			c-0.27-0.34-0.66-0.51-1.17-0.51c-0.5,0-0.89,0.17-1.17,0.51c-0.27,0.34-0.41,0.83-0.41,1.47c0,0.65,0.14,1.14,0.41,1.48
			s0.66,0.5,1.17,0.5S141.86,221.08,142.13,220.75z"/>
		<path class="st2" d="M153,214.11c0.11,0.1,0.16,0.23,0.16,0.4v7.07c0,0.18-0.05,0.31-0.16,0.41c-0.1,0.1-0.24,0.15-0.42,0.15
			c-0.18,0-0.32-0.05-0.42-0.15c-0.1-0.1-0.15-0.24-0.15-0.41v-0.46c-0.17,0.34-0.41,0.59-0.73,0.77c-0.32,0.18-0.69,0.27-1.11,0.27
			c-0.48,0-0.91-0.12-1.29-0.37c-0.38-0.24-0.67-0.59-0.88-1.03s-0.31-0.95-0.31-1.52c0-0.58,0.1-1.09,0.31-1.52
			c0.21-0.43,0.5-0.77,0.88-1.01c0.37-0.24,0.8-0.35,1.29-0.35c0.42,0,0.79,0.09,1.1,0.27c0.32,0.18,0.56,0.43,0.73,0.76v-2.91
			c0-0.16,0.05-0.29,0.15-0.38c0.1-0.1,0.24-0.14,0.42-0.14S152.89,214.01,153,214.11z M151.6,220.73c0.27-0.34,0.41-0.83,0.41-1.46
			c0-0.63-0.14-1.12-0.41-1.46c-0.27-0.34-0.66-0.51-1.16-0.51s-0.89,0.17-1.17,0.51c-0.28,0.34-0.42,0.82-0.42,1.45
			c0,0.63,0.14,1.12,0.42,1.47c0.28,0.35,0.67,0.53,1.17,0.53C150.94,221.25,151.33,221.08,151.6,220.73z"/>
		<path class="st2" d="M154.83,215.08c-0.13-0.12-0.2-0.28-0.2-0.48s0.07-0.36,0.2-0.48c0.13-0.12,0.3-0.18,0.53-0.18
			c0.21,0,0.39,0.06,0.52,0.18s0.2,0.28,0.2,0.48s-0.06,0.36-0.19,0.48s-0.31,0.18-0.53,0.18
			C155.14,215.26,154.96,215.2,154.83,215.08z M154.94,222c-0.11-0.09-0.17-0.23-0.17-0.41v-4.65c0-0.18,0.06-0.32,0.17-0.42
			s0.25-0.14,0.42-0.14c0.17,0,0.3,0.05,0.41,0.14c0.11,0.1,0.16,0.23,0.16,0.42v4.65c0,0.18-0.05,0.32-0.16,0.41
			c-0.11,0.09-0.25,0.14-0.41,0.14C155.19,222.14,155.05,222.1,154.94,222z"/>
		<path class="st2" d="M162.58,216.54c0.1,0.1,0.15,0.24,0.15,0.41v4.69c0,0.85-0.23,1.5-0.68,1.93c-0.45,0.44-1.12,0.65-2.01,0.65
			c-0.82,0-1.51-0.16-2.06-0.47c-0.28-0.16-0.42-0.35-0.42-0.57c0-0.13,0.04-0.24,0.11-0.32s0.16-0.13,0.27-0.13
			c0.1,0,0.26,0.06,0.47,0.17c0.27,0.13,0.53,0.23,0.77,0.3c0.24,0.07,0.52,0.11,0.85,0.11c1.05,0,1.58-0.53,1.58-1.59v-0.88
			c-0.16,0.34-0.41,0.6-0.73,0.78c-0.33,0.19-0.71,0.28-1.14,0.28c-0.49,0-0.92-0.11-1.3-0.34c-0.38-0.23-0.68-0.55-0.89-0.97
			c-0.21-0.42-0.32-0.9-0.32-1.45s0.11-1.03,0.32-1.45c0.21-0.42,0.51-0.75,0.89-0.98c0.38-0.23,0.81-0.35,1.3-0.35
			c0.43,0,0.8,0.09,1.13,0.27s0.57,0.44,0.74,0.78v-0.48c0-0.17,0.05-0.3,0.15-0.4s0.24-0.15,0.42-0.15
			C162.34,216.39,162.48,216.44,162.58,216.54z M161.17,220.51c0.28-0.33,0.42-0.78,0.42-1.36c0-0.57-0.14-1.02-0.42-1.36
			s-0.67-0.5-1.17-0.5s-0.9,0.16-1.18,0.49c-0.29,0.33-0.43,0.78-0.43,1.36c0,0.58,0.14,1.03,0.43,1.36S159.51,221,160,221
			S160.89,220.83,161.17,220.51z"/>
		<path class="st2" d="M164.41,215.08c-0.13-0.12-0.19-0.28-0.19-0.48s0.06-0.36,0.19-0.48s0.3-0.18,0.53-0.18
			c0.21,0,0.39,0.06,0.52,0.18s0.2,0.28,0.2,0.48s-0.06,0.36-0.19,0.48s-0.31,0.18-0.53,0.18
			C164.71,215.26,164.54,215.2,164.41,215.08z M164.52,222c-0.11-0.09-0.17-0.23-0.17-0.41v-4.65c0-0.18,0.06-0.32,0.17-0.42
			s0.25-0.14,0.42-0.14s0.3,0.05,0.41,0.14c0.11,0.1,0.16,0.23,0.16,0.42v4.65c0,0.18-0.05,0.32-0.16,0.41
			c-0.11,0.09-0.24,0.14-0.41,0.14S164.63,222.1,164.52,222z"/>
		<path class="st2" d="M170.22,221.39c0.07,0.07,0.11,0.17,0.11,0.3c0,0.15-0.06,0.27-0.18,0.35s-0.29,0.11-0.52,0.1l-0.31-0.02
			c-0.62-0.05-1.08-0.23-1.38-0.57c-0.3-0.33-0.46-0.82-0.46-1.47v-2.69h-0.69c-0.33,0-0.5-0.15-0.5-0.45
			c0-0.14,0.04-0.25,0.13-0.33c0.09-0.08,0.21-0.12,0.37-0.12h0.69v-1.18c0-0.18,0.05-0.31,0.15-0.41c0.1-0.1,0.24-0.15,0.42-0.15
			c0.17,0,0.32,0.05,0.42,0.15c0.11,0.1,0.16,0.24,0.16,0.41v1.18h1.13c0.16,0,0.28,0.04,0.37,0.12c0.09,0.08,0.13,0.19,0.13,0.33
			c0,0.15-0.04,0.26-0.13,0.33s-0.21,0.11-0.37,0.11h-1.13v2.77c0,0.36,0.07,0.62,0.22,0.79c0.15,0.17,0.38,0.26,0.68,0.29
			l0.32,0.02C170.03,221.28,170.15,221.32,170.22,221.39z"/>
		<path class="st2" d="M175.16,216.92c0.36,0.37,0.54,0.94,0.54,1.71v2.96c0,0.18-0.05,0.31-0.15,0.41c-0.1,0.1-0.24,0.14-0.41,0.14
			c-0.17,0-0.3-0.05-0.4-0.15c-0.1-0.1-0.15-0.23-0.15-0.4v-0.42c-0.15,0.32-0.36,0.57-0.65,0.74c-0.29,0.17-0.62,0.26-1,0.26
			c-0.37,0-0.7-0.07-1.01-0.22c-0.3-0.15-0.54-0.36-0.71-0.62s-0.26-0.56-0.26-0.89c0-0.4,0.1-0.72,0.31-0.96
			c0.21-0.23,0.56-0.4,1.04-0.5s1.15-0.15,2-0.15h0.26v-0.33c0-0.43-0.09-0.74-0.26-0.93c-0.18-0.19-0.46-0.29-0.85-0.29
			c-0.27,0-0.52,0.03-0.76,0.1s-0.5,0.17-0.78,0.3c-0.21,0.11-0.35,0.17-0.43,0.17c-0.11,0-0.21-0.04-0.28-0.13
			c-0.07-0.08-0.11-0.19-0.11-0.32c0-0.11,0.03-0.22,0.1-0.3s0.17-0.17,0.31-0.26c0.27-0.14,0.58-0.26,0.94-0.35
			c0.36-0.09,0.71-0.13,1.04-0.13C174.25,216.36,174.8,216.55,175.16,216.92z M174.18,220.88c0.27-0.29,0.4-0.65,0.4-1.1v-0.3h-0.21
			c-0.59,0-1.05,0.03-1.37,0.08c-0.32,0.05-0.55,0.14-0.69,0.27s-0.21,0.31-0.21,0.54c0,0.27,0.1,0.5,0.3,0.68
			c0.2,0.18,0.45,0.26,0.74,0.26C173.57,221.31,173.92,221.16,174.18,220.88z"/>
		<path class="st2" d="M177.45,222c-0.11-0.09-0.17-0.23-0.17-0.41v-7.07c0-0.18,0.06-0.32,0.17-0.42c0.11-0.1,0.25-0.14,0.42-0.14
			s0.3,0.05,0.41,0.14c0.11,0.1,0.16,0.23,0.16,0.42v7.07c0,0.18-0.05,0.32-0.16,0.41c-0.11,0.09-0.24,0.14-0.41,0.14
			S177.56,222.1,177.45,222z"/>
		<path class="st2" d="M187.07,216.92c0.36,0.37,0.54,0.94,0.54,1.71v2.96c0,0.18-0.05,0.31-0.15,0.41c-0.1,0.1-0.24,0.14-0.41,0.14
			c-0.17,0-0.3-0.05-0.4-0.15c-0.1-0.1-0.15-0.23-0.15-0.4v-0.42c-0.15,0.32-0.36,0.57-0.65,0.74c-0.29,0.17-0.62,0.26-1,0.26
			c-0.37,0-0.7-0.07-1.01-0.22c-0.3-0.15-0.54-0.36-0.71-0.62s-0.26-0.56-0.26-0.89c0-0.4,0.1-0.72,0.31-0.96
			c0.21-0.23,0.56-0.4,1.04-0.5s1.15-0.15,2-0.15h0.26v-0.33c0-0.43-0.09-0.74-0.26-0.93c-0.18-0.19-0.46-0.29-0.85-0.29
			c-0.27,0-0.52,0.03-0.76,0.1s-0.5,0.17-0.78,0.3c-0.21,0.11-0.35,0.17-0.43,0.17c-0.11,0-0.21-0.04-0.28-0.13
			c-0.07-0.08-0.11-0.19-0.11-0.32c0-0.11,0.03-0.22,0.1-0.3s0.17-0.17,0.31-0.26c0.27-0.14,0.58-0.26,0.94-0.35
			c0.36-0.09,0.71-0.13,1.04-0.13C186.16,216.36,186.71,216.55,187.07,216.92z M186.1,220.88c0.27-0.29,0.4-0.65,0.4-1.1v-0.3h-0.21
			c-0.59,0-1.05,0.03-1.37,0.08c-0.32,0.05-0.55,0.14-0.69,0.27s-0.21,0.31-0.21,0.54c0,0.27,0.1,0.5,0.3,0.68
			c0.2,0.18,0.45,0.26,0.74,0.26C185.49,221.31,185.83,221.16,186.1,220.88z"/>
		<path class="st2" d="M196.96,216.53c0.1,0.1,0.15,0.24,0.15,0.41v4.66c0,0.16-0.05,0.29-0.16,0.39c-0.11,0.1-0.25,0.15-0.42,0.15
			c-0.16,0-0.29-0.05-0.39-0.14c-0.1-0.1-0.15-0.22-0.15-0.38v-0.44c-0.18,0.32-0.42,0.56-0.73,0.73c-0.31,0.17-0.65,0.25-1.04,0.25
			c-1.36,0-2.04-0.75-2.04-2.24v-2.98c0-0.18,0.05-0.31,0.15-0.41c0.1-0.1,0.25-0.15,0.43-0.15c0.17,0,0.31,0.05,0.42,0.15
			c0.1,0.1,0.15,0.24,0.15,0.41v2.96c0,0.45,0.09,0.78,0.28,1c0.18,0.21,0.46,0.32,0.85,0.32c0.45,0,0.81-0.14,1.08-0.43
			c0.27-0.29,0.41-0.68,0.41-1.16v-2.69c0-0.17,0.05-0.3,0.16-0.41c0.11-0.1,0.25-0.15,0.42-0.15S196.86,216.44,196.96,216.53z"/>
		<path class="st2" d="M203.74,218.62v2.98c0,0.18-0.05,0.31-0.15,0.41s-0.25,0.14-0.43,0.14c-0.18,0-0.32-0.05-0.42-0.15
			c-0.1-0.1-0.15-0.23-0.15-0.4v-2.92c0-0.47-0.09-0.82-0.28-1.04c-0.19-0.22-0.48-0.33-0.88-0.33c-0.47,0-0.84,0.15-1.12,0.44
			c-0.28,0.29-0.42,0.68-0.42,1.17v2.69c0,0.17-0.05,0.3-0.15,0.4c-0.1,0.1-0.24,0.15-0.42,0.15s-0.32-0.05-0.42-0.15
			c-0.11-0.1-0.16-0.23-0.16-0.4v-4.66c0-0.16,0.06-0.29,0.17-0.4s0.25-0.15,0.42-0.15s0.3,0.05,0.4,0.15
			c0.1,0.1,0.15,0.23,0.15,0.39v0.47c0.18-0.34,0.44-0.59,0.77-0.77c0.33-0.18,0.7-0.26,1.11-0.26
			C203.07,216.36,203.74,217.11,203.74,218.62z"/>
		<path class="st2" d="M208.38,221.68c-0.14-0.08-0.23-0.17-0.29-0.26c-0.06-0.09-0.09-0.19-0.09-0.31c0-0.12,0.03-0.23,0.1-0.31
			c0.07-0.08,0.16-0.13,0.26-0.13c0.1,0,0.25,0.06,0.47,0.18c0.23,0.12,0.45,0.22,0.67,0.3c0.22,0.08,0.49,0.11,0.82,0.11
			c0.37,0,0.65-0.06,0.86-0.19c0.21-0.13,0.31-0.31,0.31-0.55c0-0.15-0.04-0.27-0.12-0.37c-0.08-0.09-0.22-0.17-0.42-0.25
			c-0.2-0.07-0.49-0.15-0.88-0.23c-0.67-0.15-1.15-0.34-1.45-0.59c-0.29-0.25-0.44-0.59-0.44-1.01c0-0.33,0.1-0.62,0.29-0.89
			s0.45-0.47,0.79-0.61c0.34-0.14,0.72-0.22,1.14-0.22c0.3,0,0.6,0.04,0.89,0.12s0.54,0.2,0.77,0.35c0.25,0.17,0.38,0.36,0.38,0.58
			c0,0.12-0.04,0.23-0.11,0.31c-0.07,0.08-0.16,0.13-0.26,0.13c-0.07,0-0.14-0.02-0.21-0.05c-0.07-0.03-0.16-0.08-0.28-0.15
			c-0.21-0.12-0.4-0.22-0.58-0.29c-0.18-0.07-0.4-0.1-0.67-0.1c-0.32,0-0.58,0.07-0.77,0.21c-0.19,0.14-0.29,0.32-0.29,0.56
			c0,0.21,0.09,0.38,0.27,0.5c0.18,0.12,0.52,0.23,1.01,0.34c0.51,0.11,0.91,0.23,1.2,0.37s0.5,0.31,0.62,0.51s0.19,0.46,0.19,0.77
			c0,0.5-0.21,0.89-0.62,1.2c-0.42,0.3-0.97,0.45-1.67,0.45C209.51,222.16,208.87,222,208.38,221.68z"/>
		<path class="st2" d="M214.84,221.81c-0.42-0.24-0.74-0.57-0.96-1.01c-0.23-0.44-0.34-0.95-0.34-1.53c0-0.59,0.11-1.1,0.34-1.54
			c0.22-0.44,0.54-0.78,0.96-1.01s0.9-0.35,1.45-0.35c0.55,0,1.03,0.12,1.45,0.35s0.74,0.57,0.96,1.01
			c0.22,0.44,0.34,0.95,0.34,1.54c0,0.58-0.11,1.09-0.34,1.53c-0.23,0.44-0.55,0.78-0.96,1.01c-0.42,0.24-0.9,0.35-1.45,0.35
			C215.74,222.16,215.25,222.05,214.84,221.81z M217.46,220.75c0.27-0.34,0.41-0.83,0.41-1.48c0-0.64-0.14-1.13-0.41-1.47
			c-0.27-0.34-0.66-0.51-1.17-0.51c-0.5,0-0.89,0.17-1.17,0.51c-0.27,0.34-0.41,0.83-0.41,1.47c0,0.65,0.13,1.14,0.41,1.48
			c0.27,0.34,0.66,0.5,1.17,0.5C216.8,221.25,217.19,221.08,217.46,220.75z"/>
		<path class="st2" d="M220.48,222c-0.11-0.09-0.17-0.23-0.17-0.41v-7.07c0-0.18,0.06-0.32,0.17-0.42c0.11-0.1,0.25-0.14,0.42-0.14
			s0.3,0.05,0.41,0.14c0.11,0.1,0.16,0.23,0.16,0.42v7.07c0,0.18-0.05,0.32-0.16,0.41c-0.11,0.09-0.24,0.14-0.41,0.14
			S220.59,222.1,220.48,222z"/>
		<path class="st2" d="M224.06,221.81c-0.42-0.24-0.74-0.57-0.96-1.01c-0.23-0.44-0.34-0.95-0.34-1.53c0-0.59,0.11-1.1,0.34-1.54
			c0.22-0.44,0.54-0.78,0.96-1.01s0.9-0.35,1.45-0.35c0.55,0,1.03,0.12,1.45,0.35s0.74,0.57,0.96,1.01
			c0.22,0.44,0.34,0.95,0.34,1.54c0,0.58-0.11,1.09-0.34,1.53c-0.23,0.44-0.55,0.78-0.96,1.01c-0.42,0.24-0.9,0.35-1.45,0.35
			C224.96,222.16,224.48,222.05,224.06,221.81z M226.68,220.75c0.27-0.34,0.41-0.83,0.41-1.48c0-0.64-0.14-1.13-0.41-1.47
			c-0.27-0.34-0.66-0.51-1.17-0.51c-0.5,0-0.89,0.17-1.17,0.51c-0.27,0.34-0.41,0.83-0.41,1.47c0,0.65,0.13,1.14,0.41,1.48
			c0.27,0.34,0.66,0.5,1.17,0.5C226.02,221.25,226.41,221.08,226.68,220.75z"/>
		<path class="st2" d="M233.53,221.81c-0.41-0.24-0.73-0.57-0.95-1.01c-0.23-0.44-0.34-0.94-0.34-1.51c0-0.58,0.12-1.09,0.35-1.53
			c0.23-0.44,0.56-0.79,0.98-1.03c0.42-0.24,0.9-0.37,1.44-0.37c0.29,0,0.58,0.04,0.88,0.13c0.29,0.08,0.55,0.2,0.78,0.34
			c0.24,0.17,0.37,0.36,0.37,0.58c0,0.13-0.03,0.24-0.1,0.33c-0.07,0.09-0.16,0.13-0.26,0.13c-0.07,0-0.14-0.02-0.21-0.05
			c-0.07-0.03-0.16-0.09-0.26-0.15c-0.19-0.12-0.37-0.22-0.53-0.28s-0.36-0.1-0.59-0.1c-0.52,0-0.92,0.18-1.21,0.53
			s-0.43,0.84-0.43,1.46s0.14,1.11,0.42,1.45s0.68,0.51,1.2,0.51c0.23,0,0.43-0.03,0.61-0.1c0.17-0.07,0.35-0.16,0.54-0.27
			c0.08-0.05,0.17-0.1,0.25-0.14s0.16-0.06,0.23-0.06c0.11,0,0.19,0.04,0.26,0.13c0.07,0.09,0.1,0.2,0.1,0.33
			c0,0.11-0.03,0.2-0.09,0.29s-0.15,0.18-0.29,0.27c-0.23,0.15-0.5,0.27-0.8,0.35c-0.31,0.08-0.61,0.13-0.93,0.13
			C234.41,222.16,233.93,222.05,233.53,221.81z"/>
		<path class="st2" d="M238.25,222c-0.11-0.09-0.17-0.23-0.17-0.41v-7.07c0-0.18,0.06-0.32,0.17-0.42c0.11-0.1,0.25-0.14,0.42-0.14
			s0.3,0.05,0.41,0.14c0.11,0.1,0.16,0.23,0.16,0.42v7.07c0,0.18-0.05,0.32-0.16,0.41c-0.11,0.09-0.24,0.14-0.41,0.14
			S238.36,222.1,238.25,222z"/>
		<path class="st2" d="M240.91,215.08c-0.13-0.12-0.19-0.28-0.19-0.48s0.06-0.36,0.19-0.48s0.3-0.18,0.53-0.18
			c0.21,0,0.39,0.06,0.52,0.18s0.2,0.28,0.2,0.48s-0.06,0.36-0.19,0.48s-0.31,0.18-0.53,0.18
			C241.22,215.26,241.04,215.2,240.91,215.08z M241.02,222c-0.11-0.09-0.17-0.23-0.17-0.41v-4.65c0-0.18,0.06-0.32,0.17-0.42
			s0.25-0.14,0.42-0.14s0.3,0.05,0.41,0.14c0.11,0.1,0.16,0.23,0.16,0.42v4.65c0,0.18-0.05,0.32-0.16,0.41
			c-0.11,0.09-0.24,0.14-0.41,0.14S241.13,222.1,241.02,222z"/>
		<path class="st2" d="M244.59,221.81c-0.41-0.24-0.73-0.57-0.95-1.01c-0.23-0.44-0.34-0.94-0.34-1.51c0-0.58,0.12-1.09,0.35-1.53
			c0.23-0.44,0.56-0.79,0.98-1.03c0.42-0.24,0.9-0.37,1.44-0.37c0.29,0,0.58,0.04,0.88,0.13c0.29,0.08,0.55,0.2,0.78,0.34
			c0.24,0.17,0.37,0.36,0.37,0.58c0,0.13-0.03,0.24-0.1,0.33c-0.07,0.09-0.16,0.13-0.26,0.13c-0.07,0-0.14-0.02-0.21-0.05
			c-0.07-0.03-0.16-0.09-0.26-0.15c-0.19-0.12-0.37-0.22-0.53-0.28s-0.36-0.1-0.59-0.1c-0.52,0-0.92,0.18-1.21,0.53
			s-0.43,0.84-0.43,1.46s0.14,1.11,0.42,1.45s0.68,0.51,1.2,0.51c0.23,0,0.43-0.03,0.61-0.1c0.17-0.07,0.35-0.16,0.54-0.27
			c0.08-0.05,0.17-0.1,0.25-0.14s0.16-0.06,0.23-0.06c0.11,0,0.19,0.04,0.26,0.13c0.07,0.09,0.1,0.2,0.1,0.33
			c0,0.11-0.03,0.2-0.09,0.29s-0.15,0.18-0.29,0.27c-0.23,0.15-0.5,0.27-0.8,0.35c-0.31,0.08-0.61,0.13-0.93,0.13
			C245.48,222.16,245,222.05,244.59,221.81z"/>
		<path class="st2" d="M254.05,221.6c0,0.15-0.05,0.27-0.15,0.38c-0.1,0.11-0.22,0.16-0.36,0.16c-0.14,0-0.27-0.05-0.39-0.16
			l-2.85-2.52v2.12c0,0.18-0.05,0.32-0.16,0.42c-0.11,0.1-0.24,0.14-0.41,0.14s-0.31-0.05-0.42-0.14s-0.17-0.23-0.17-0.42v-7.06
			c0-0.18,0.06-0.32,0.17-0.42c0.11-0.1,0.25-0.14,0.42-0.14s0.3,0.05,0.41,0.14c0.11,0.1,0.16,0.23,0.16,0.42v4.49l2.61-2.44
			c0.13-0.11,0.26-0.17,0.38-0.17c0.14,0,0.27,0.05,0.38,0.16c0.11,0.11,0.16,0.23,0.16,0.38s-0.06,0.28-0.19,0.4l-2.04,1.87
			l2.24,1.98C253.98,221.3,254.05,221.44,254.05,221.6z"/>
	</g>
</g>
<g>
</g>
<g>
</g>
<g>
</g>
<g>
</g>
<g>
</g>
<g>
</g>
</svg>
