<?xml version="1.0" encoding="utf-8"?>
<!-- Generator: Adobe Illustrator 28.0.0, SVG Export Plug-In . SVG Version: 6.00 Build 0)  -->
<svg version="1.1" id="Capa_1" xmlns="http://www.w3.org/2000/svg" xmlns:xlink="http://www.w3.org/1999/xlink" x="0px" y="0px"
	 viewBox="0 0 16 16" style="enable-background:new 0 0 16 16;" xml:space="preserve">
<style type="text/css">
	.st0{fill:#2BB8C9;}
	.st1{fill:#020D18;}
</style>
<circle class="st0" cx="8" cy="8" r="8"/>
<g>
	<path class="st1" d="M6.69,11.16H6.39v1.57h0.29c0.08,0,0.13-0.04,0.13-0.12v-1.34C6.82,11.21,6.77,11.16,6.69,11.16z"/>
	<path class="st1" d="M12.86,7.71c0.01-0.04,0.02-0.06,0.03-0.07c0.28-0.55,0.44-1.13,0.38-1.75c-0.04-0.37-0.13-0.73-0.33-1.05
		c-0.06-0.09-0.11-0.11-0.2-0.05C12.56,4.91,12.38,5,12.18,5.06c-0.12,0.04-0.12,0.09-0.07,0.19c0.2,0.4,0.26,0.82,0.21,1.27
		c-0.14,1.13-1.38,1.96-2.47,1.64c-0.6-0.17-0.99-0.56-1.11-1.18C8.64,6.39,8.87,5.91,9.31,5.53c0.37-0.33,0.84-0.49,1.31-0.62
		c0.72-0.2,1.44-0.38,2.09-0.78c0.74-0.46,1.02-1.1,0.81-1.94C13.5,2.09,13.48,2,13.37,1.97c-0.1-0.02-0.15,0.05-0.21,0.12
		c-0.12,0.14-0.25,0.27-0.39,0.39c-0.66,0.55-1.45,0.74-2.27,0.84c-0.04,0.01-0.1,0-0.13-0.02C9.96,3.05,9.5,2.93,9.03,2.85
		C8.05,2.69,7.09,2.82,6.18,3.24C6.07,3.29,5.97,3.32,5.85,3.3C5.43,3.23,5,3.16,4.6,3C4.09,2.8,3.63,2.51,3.27,2.08
		C3.13,1.92,3.01,1.92,2.95,2.1C2.84,2.44,2.81,2.79,2.91,3.14C3.06,3.65,3.44,3.95,3.87,4.2c0.62,0.36,1.31,0.52,1.99,0.71
		c0.49,0.14,0.97,0.31,1.34,0.68C8.08,6.44,7.79,7.67,6.8,8.1C6,8.44,4.98,8.11,4.46,7.37C4,6.7,3.99,5.98,4.33,5.26
		C4.38,5.15,4.4,5.1,4.26,5.05C4.09,4.99,3.92,4.91,3.77,4.82C3.63,4.73,3.55,4.76,3.48,4.9c-0.25,0.47-0.34,0.98-0.3,1.51
		c0.04,0.46,0.19,0.89,0.42,1.31C3.29,7.74,3.25,7.77,3.15,8.05c-0.28,0.79-0.28,1.58-0.08,2.38c0.41,1.58,1.4,2.7,2.77,3.53
		c0.83,0.51,1.77,0.87,2.38,1.72c0.42-0.58,0.99-0.94,1.59-1.27c0.26-0.14,0.53-0.28,0.78-0.44c1.21-0.73,2.14-1.69,2.63-3.03
		c0.33-0.9,0.41-1.82,0.12-2.75C13.26,7.95,13.2,7.69,12.86,7.71z M7.93,7.89c0.05,0.17,0.1,0.32,0.18,0.45
		C8.2,8.49,8.21,8.49,8.3,8.35c0.09-0.14,0.13-0.29,0.18-0.46c0.32,0.37,0.7,0.56,1.19,0.55C9.01,8.68,8.53,9.11,8.21,9.75
		C7.89,9.12,7.43,8.67,6.77,8.44C7.24,8.44,7.62,8.26,7.93,7.89z M7.24,12.7c0,0.28-0.16,0.42-0.46,0.42H6.01
		c-0.04,0-0.05-0.01-0.05-0.05v-2.26c0-0.03,0.02-0.05,0.05-0.05h0.77c0.3,0,0.46,0.15,0.46,0.43V12.7z M8.83,11.12
		c0,0.03-0.01,0.05-0.05,0.05h-0.8v0.59h0.61c0.03,0,0.05,0.02,0.05,0.05v0.29c0,0.03-0.02,0.05-0.05,0.05H7.98v0.59h0.8
		c0.04,0,0.05,0.01,0.05,0.05v0.29c0,0.03-0.01,0.05-0.05,0.05H7.6c-0.03,0-0.05-0.02-0.05-0.05v-2.3h1.22
		c0.04,0,0.05,0.02,0.05,0.05V11.12z M10.08,13.07c-0.01,0.04-0.03,0.05-0.07,0.05H9.69c-0.04,0-0.06-0.02-0.07-0.05l-0.54-2.23
		c-0.01-0.04,0.01-0.06,0.06-0.06h0.3c0.04,0,0.06,0.02,0.07,0.05l0.34,1.57l0.34-1.57c0.01-0.04,0.03-0.05,0.07-0.05h0.3
		c0.05,0,0.07,0.02,0.06,0.06L10.08,13.07z"/>
	<path class="st1" d="M10.38,6.61c0.09,0.07,0.18,0.12,0.3,0.09c0.51-0.13,0.75-0.67,0.54-1.21c-0.02-0.06-0.06-0.07-0.12-0.05
		c-0.39,0.11-0.8,0.19-1.16,0.39C9.57,6.04,9.32,6.34,9.31,6.75c0,0.4,0.22,0.71,0.57,0.86c0.3,0.12,0.68,0.04,0.9-0.19
		c0.07-0.07,0.12-0.15,0.13-0.25c0.01-0.13-0.05-0.21-0.18-0.25c-0.12-0.04-0.19,0-0.25,0.12c-0.09,0.2-0.28,0.26-0.47,0.18
		C9.82,7.13,9.73,6.9,9.81,6.71C9.92,6.48,10.16,6.43,10.38,6.61z"/>
	<path class="st1" d="M6.41,7.23C6.23,7.3,6.04,7.24,5.95,7.05C5.89,6.91,5.8,6.89,5.69,6.92C5.56,6.96,5.53,7.06,5.55,7.19
		c0.01,0.1,0.07,0.18,0.14,0.25c0.42,0.41,1.17,0.24,1.39-0.32c0.17-0.43,0.02-0.87-0.4-1.18C6.36,5.71,5.99,5.6,5.62,5.5
		C5.2,5.39,5.16,5.43,5.15,5.87c0,0.28,0.09,0.51,0.31,0.68C5.7,6.74,5.83,6.74,6.08,6.58c0.05-0.04,0.11-0.07,0.18-0.07
		C6.44,6.49,6.6,6.59,6.64,6.75C6.69,6.95,6.59,7.16,6.41,7.23z"/>
</g>
</svg>
