<?xml version="1.0" encoding="utf-8"?>
<!-- Generator: Adobe Illustrator 28.0.0, SVG Export Plug-In . SVG Version: 6.00 Build 0)  -->
<svg version="1.1" id="Capa_1" xmlns="http://www.w3.org/2000/svg" xmlns:xlink="http://www.w3.org/1999/xlink" x="0px" y="0px"
	 viewBox="0 0 50.55 16.34" style="enable-background:new 0 0 50.55 16.34;" xml:space="preserve">
<style type="text/css">
	.st0{fill:#2BB8C9;}
</style>
<path class="st0" d="M49.53,2.42c0,2.4,0,4.81,0,7.21c0,0.32-0.14,0.49-0.48,0.49c-0.28,0-0.56-0.01-0.83,0
	c-0.38,0.02-0.52-0.15-0.52-0.52c0.01-1.19,0.01-2.38,0.01-3.56V5.66c-0.03-0.01-0.05-0.01-0.08-0.02c-0.45,0.85-0.9,1.71-1.36,2.56
	c-0.04,0.08-0.08,0.16-0.13,0.24c-0.25,0.4-0.59,0.4-0.81-0.02c-0.42-0.79-0.83-1.59-1.24-2.38c-0.07-0.14-0.14-0.27-0.28-0.4v0.84
	c0,1.02,0,2.03,0,3.05c0,0.49-0.1,0.58-0.57,0.59c-0.24,0-0.47,0-0.71,0c-0.44,0-0.53-0.09-0.53-0.54c0-1.6,0-3.2,0-4.79
	c0-0.78,0-1.56,0-2.34c0-0.45,0.08-0.52,0.54-0.53c0.24-0.01,0.48,0.03,0.71,0c0.54-0.07,0.81,0.2,1.03,0.65
	c0.4,0.83,0.84,1.64,1.26,2.46c0.05,0.1,0.1,0.26,0.22,0.26c0.15,0,0.19-0.16,0.25-0.28c0.44-0.84,0.88-1.68,1.3-2.53
	c0.19-0.38,0.43-0.61,0.89-0.57c0.27,0.03,0.55-0.01,0.83-0.01C49.36,1.91,49.53,2.08,49.53,2.42z"/>
<path class="st0" d="M20.78,5.78c0.22-0.2,0.43-0.4,0.56-0.67c0.65-1.34-0.4-3.06-1.96-3.16c-0.97-0.06-1.95-0.02-2.93-0.03
	c-0.21,0-0.36,0.07-0.45,0.26c0,2.54,0,5.08,0,7.62c0.07,0.26,0.26,0.33,0.51,0.33c0.87-0.01,1.74-0.01,2.61,0
	c0.21,0,0.42-0.03,0.62-0.09c0.99-0.3,1.71-0.88,1.95-1.92C21.92,7.14,21.62,6.35,20.78,5.78z M18.56,3.61
	c0.22,0,0.44-0.02,0.66,0.07c0.34,0.15,0.55,0.5,0.5,0.85C19.66,4.88,19.4,5.1,19,5.13c-0.12,0.01-0.24,0.01-0.35,0.01
	c-0.82,0-0.82,0-0.82-0.81C17.82,3.61,17.82,3.61,18.56,3.61z M19.29,8.37c-0.42,0.11-0.84,0.05-1.26,0.07
	c-0.17,0.01-0.2-0.08-0.2-0.22c0-0.21,0-0.42,0-0.63c0-0.81,0-0.81,0.78-0.81c0.17,0,0.34-0.01,0.51,0
	c0.45,0.02,0.76,0.31,0.79,0.73C19.95,7.96,19.73,8.25,19.29,8.37z"/>
<path class="st0" d="M29.22,9.65c-0.06-0.14-0.16-0.27-0.24-0.41c-0.43-0.69-0.86-1.39-1.29-2.08c-0.12-0.2-0.13-0.32,0.11-0.47
	c1.04-0.65,1.41-1.68,1.08-2.87c-0.29-1.06-1.3-1.86-2.42-1.89c-0.88-0.02-1.77-0.02-2.65-0.02c-0.46,0-0.53,0.08-0.53,0.54
	c0,1.18,0,2.35,0,3.53h-0.01c0,1.18,0,2.35,0,3.53c0,0.53,0.08,0.61,0.59,0.61c0.22,0,0.45,0,0.67,0c0.49,0,0.59-0.09,0.59-0.57
	c0-0.7,0-1.4,0-2.1c0-0.12-0.03-0.27,0.16-0.31c0.16-0.03,0.29-0.02,0.39,0.12c0.08,0.12,0.16,0.24,0.23,0.37
	c0.41,0.71,0.82,1.41,1.23,2.12c0.11,0.18,0.2,0.38,0.47,0.37c0.45-0.01,0.9,0.01,1.35-0.01C29.23,10.1,29.33,9.91,29.22,9.65z
	 M26.65,5.43c-0.45,0.19-0.94,0.07-1.41,0.08c-0.13,0-0.12-0.12-0.12-0.21c0-0.25,0-0.5,0-0.81c0.06-0.25-0.16-0.74,0.09-0.83
	c0.42-0.15,0.94-0.13,1.39,0.04c0.38,0.15,0.56,0.46,0.57,0.87C27.18,4.97,27.01,5.28,26.65,5.43z"/>
<path class="st0" d="M40.56,9.41C39.83,7.2,39.1,5,38.36,2.79c-0.27-0.81-0.12-0.94-1.3-0.89c-0.43,0.02-0.63,0.17-0.76,0.57
	c-0.44,1.35-0.91,2.69-1.37,4.03c-0.33,0.98-0.67,1.97-1,2.95c-0.17,0.51-0.05,0.67,0.5,0.67c0.22,0,0.45-0.02,0.67,0
	c0.32,0.04,0.49-0.12,0.59-0.4c0.04-0.13,0.07-0.25,0.1-0.38c0.08-0.32,0.26-0.49,0.61-0.47c0.28,0.02,0.55,0,0.83,0v0
	c0.3,0,0.61,0.01,0.91,0c0.26-0.01,0.41,0.12,0.5,0.36c0.36,0.9,0.37,0.89,1.35,0.89h0.04C40.65,10.11,40.75,9.99,40.56,9.41z
	 M37.57,7.25c-0.24-0.02-0.48-0.01-0.71,0c-0.27,0.01-0.32-0.12-0.24-0.35c0.21-0.57,0.41-1.13,0.64-1.76
	c0.23,0.63,0.42,1.16,0.62,1.69C37.99,7.13,37.91,7.27,37.57,7.25z"/>
<path class="st0" d="M32.5,4.68c0,1.64,0,3.27,0,4.91c0,0.45-0.07,0.53-0.53,0.53c-0.24,0-0.47,0-0.71,0c-0.46,0-0.55-0.1-0.55-0.56
	c0-1.94,0-3.88,0-5.82c0-0.53,0-1.05,0-1.66c0.69,0.69,1.23,1.41,1.72,2.17C32.51,4.39,32.5,4.54,32.5,4.68z"/>
<path class="st0" d="M20.85,11.66l-0.06,0.46l-1.22-0.04h-0.57l-0.05,2.13l0.05,1.2h-1.09l0.06-1.15l-0.05-2.18h-0.57l-1.24,0.04
	l-0.07-0.05l0.08-0.46h4.66L20.85,11.66z"/>
<path class="st0" d="M26.25,12.04c0.5,0.32,0.76,0.79,0.76,1.39c0,0.65-0.27,1.15-0.81,1.5c-0.54,0.35-1.3,0.53-2.3,0.53
	c-0.92,0-1.63-0.17-2.13-0.5c-0.5-0.33-0.75-0.81-0.75-1.42c0-0.64,0.27-1.13,0.8-1.47c0.53-0.34,1.3-0.52,2.28-0.52
	C25.03,11.56,25.75,11.72,26.25,12.04z M22.6,12.4c-0.31,0.23-0.47,0.59-0.47,1.07c0,0.53,0.15,0.91,0.46,1.15
	c0.3,0.24,0.77,0.36,1.41,0.36c0.64,0,1.12-0.12,1.43-0.35c0.31-0.23,0.46-0.6,0.46-1.09c0-0.52-0.15-0.9-0.46-1.14
	c-0.3-0.24-0.77-0.36-1.41-0.36C23.38,12.05,22.91,12.17,22.6,12.4z"/>
<path class="st0" d="M33.02,15.27l-0.01,0.07c-0.34,0.06-0.68,0.1-1.04,0.12l-0.13-0.05c-0.58-0.54-1.05-0.99-1.41-1.36h-1.14v0.16
	l0.05,1.2h-1.1l0.07-1.15l-0.07-2.66l2.29-0.01c0.68,0,1.2,0.1,1.57,0.29c0.37,0.19,0.56,0.47,0.56,0.82c0,0.25-0.12,0.48-0.35,0.69
	c-0.23,0.2-0.56,0.37-0.98,0.5C31.8,14.32,32.37,14.78,33.02,15.27z M29.31,13.56l1.15,0.02c0.71-0.12,1.06-0.4,1.06-0.82
	c0-0.22-0.11-0.39-0.32-0.5c-0.21-0.11-0.54-0.17-0.97-0.18l-0.89,0.02L29.31,13.56z"/>
<path class="st0" d="M38.99,15.27l-0.01,0.07c-0.34,0.06-0.68,0.1-1.04,0.12l-0.13-0.05c-0.58-0.54-1.05-0.99-1.41-1.36h-1.14v0.16
	l0.05,1.2h-1.1l0.07-1.15l-0.07-2.66l2.29-0.01c0.68,0,1.2,0.1,1.57,0.29c0.37,0.19,0.56,0.47,0.56,0.82c0,0.25-0.12,0.48-0.35,0.69
	c-0.23,0.2-0.56,0.37-0.98,0.5C37.78,14.32,38.34,14.78,38.99,15.27z M35.29,13.56l1.15,0.02c0.71-0.12,1.06-0.4,1.06-0.82
	c0-0.22-0.11-0.39-0.32-0.5c-0.21-0.11-0.54-0.17-0.97-0.18l-0.89,0.02L35.29,13.56z"/>
<path class="st0" d="M44.18,14.89l0.06,0.05l-0.07,0.47H40.2l0.07-1.15L40.2,11.6h4l0.06,0.05l-0.08,0.47l-1.59-0.02l-1.28,0.01
	l-0.03,1.11l1.22,0.01l1.11-0.02l0.07,0.05l-0.08,0.47l-1.18-0.02l-1.14,0.01l-0.01,0.49l0.03,0.7l1.28,0.01L44.18,14.89z"/>
<path class="st0" d="M48.93,11.75l-0.18,0.56l-0.17,0.04c-0.22-0.09-0.45-0.16-0.69-0.21c-0.24-0.05-0.47-0.08-0.68-0.08
	c-0.34,0-0.62,0.05-0.82,0.16c-0.2,0.11-0.3,0.23-0.3,0.37c0,0.14,0.1,0.25,0.3,0.34c0.2,0.09,0.52,0.19,0.95,0.31
	c0.38,0.1,0.68,0.2,0.92,0.28c0.23,0.08,0.44,0.19,0.6,0.33c0.17,0.14,0.25,0.3,0.25,0.49c0,0.21-0.1,0.39-0.3,0.57
	c-0.2,0.17-0.48,0.31-0.84,0.41c-0.36,0.1-0.77,0.15-1.23,0.15c-0.31,0-0.63-0.02-0.95-0.07c-0.33-0.04-0.64-0.11-0.93-0.19L45,14.6
	l0.14-0.04c0.26,0.14,0.54,0.24,0.85,0.31c0.31,0.07,0.6,0.1,0.87,0.1c0.36,0,0.65-0.05,0.87-0.16c0.22-0.11,0.33-0.24,0.33-0.39
	c0-0.15-0.1-0.27-0.31-0.36c-0.21-0.09-0.53-0.2-0.96-0.31c-0.37-0.1-0.67-0.19-0.9-0.27c-0.23-0.08-0.43-0.19-0.59-0.32
	c-0.16-0.13-0.25-0.3-0.25-0.49c0-0.21,0.1-0.39,0.29-0.56c0.2-0.17,0.47-0.3,0.82-0.4c0.35-0.1,0.75-0.15,1.2-0.15
	C47.87,11.56,48.4,11.63,48.93,11.75z"/>
<g>
	<path class="st0" d="M6.02,10.8H5.69v1.79h0.33c0.09,0,0.15-0.04,0.15-0.13v-1.52C6.17,10.85,6.12,10.8,6.02,10.8z"/>
	<path class="st0" d="M12.29,7.69c0.01-0.04,0.02-0.05,0.03-0.07c0.27-0.54,0.43-1.1,0.37-1.7c-0.04-0.36-0.13-0.71-0.32-1.02
		c-0.05-0.09-0.11-0.11-0.2-0.05c-0.16,0.11-0.34,0.2-0.53,0.26c-0.12,0.04-0.12,0.09-0.07,0.19c0.2,0.39,0.26,0.8,0.2,1.24
		c-0.14,1.1-1.34,1.91-2.41,1.6C8.77,7.97,8.39,7.59,8.28,6.98C8.18,6.41,8.4,5.94,8.83,5.56c0.37-0.32,0.82-0.48,1.27-0.61
		c0.7-0.2,1.41-0.37,2.04-0.76c0.72-0.45,1-1.07,0.79-1.89c-0.02-0.08-0.04-0.18-0.15-0.2c-0.1-0.02-0.15,0.05-0.2,0.11
		c-0.11,0.14-0.24,0.26-0.38,0.38C11.57,3.12,10.8,3.3,10,3.4c-0.04,0-0.09,0-0.13-0.02C9.46,3.15,9.02,3.03,8.56,2.95
		C7.59,2.79,6.66,2.92,5.78,3.33C5.67,3.38,5.57,3.41,5.45,3.39C5.04,3.32,4.63,3.25,4.24,3.1c-0.5-0.2-0.95-0.48-1.3-0.9
		C2.8,2.04,2.68,2.05,2.63,2.22C2.52,2.55,2.49,2.89,2.59,3.23C2.74,3.73,3.1,4.02,3.52,4.27c0.6,0.35,1.28,0.51,1.94,0.69
		c0.48,0.13,0.94,0.31,1.31,0.66c0.85,0.83,0.57,2.04-0.4,2.45C5.6,8.4,4.61,8.08,4.1,7.36C3.65,6.7,3.64,6.01,3.98,5.3
		C4.02,5.19,4.04,5.14,3.9,5.1C3.74,5.04,3.58,4.96,3.43,4.87C3.29,4.78,3.21,4.81,3.14,4.94C2.9,5.41,2.81,5.9,2.85,6.42
		c0.03,0.45,0.18,0.86,0.41,1.27c-0.3,0.03-0.35,0.06-0.45,0.33c-0.27,0.77-0.28,1.54-0.08,2.32c0.4,1.54,1.37,2.63,2.7,3.44
		c0.81,0.49,1.73,0.85,2.32,1.68c0.41-0.56,0.97-0.91,1.55-1.23c0.26-0.14,0.51-0.28,0.76-0.43c1.18-0.71,2.08-1.65,2.56-2.96
		c0.32-0.88,0.4-1.78,0.12-2.68C12.68,7.92,12.62,7.67,12.29,7.69z M7.48,7.86c0.05,0.16,0.1,0.31,0.18,0.44
		c0.09,0.14,0.09,0.14,0.18,0.01c0.09-0.13,0.13-0.29,0.18-0.45C8.33,8.22,8.71,8.4,9.18,8.4C8.54,8.63,8.07,9.06,7.76,9.68
		C7.45,9.07,6.99,8.63,6.35,8.4C6.81,8.4,7.18,8.22,7.48,7.86z M6.69,12.5c0,0.33-0.19,0.51-0.55,0.51H5.22
		c-0.04,0-0.06-0.02-0.06-0.06v-2.7c0-0.04,0.02-0.06,0.06-0.06h0.92c0.36,0,0.55,0.18,0.55,0.51V12.5z M8.6,10.6
		c0,0.04-0.02,0.06-0.06,0.06H7.58v0.7h0.73c0.03,0,0.06,0.03,0.06,0.06v0.35c0,0.03-0.03,0.06-0.06,0.06H7.58v0.71h0.96
		c0.05,0,0.06,0.02,0.06,0.06v0.35c0,0.04-0.02,0.06-0.06,0.06H7.13c-0.03,0-0.06-0.03-0.06-0.06V10.2h1.46
		c0.05,0,0.06,0.02,0.06,0.06V10.6z M10.1,12.95c-0.01,0.04-0.04,0.06-0.08,0.06H9.64c-0.05,0-0.07-0.02-0.08-0.06l-0.64-2.68
		C8.9,10.22,8.92,10.2,8.98,10.2h0.36c0.05,0,0.07,0.02,0.08,0.06l0.4,1.89l0.41-1.89c0.01-0.04,0.04-0.06,0.08-0.06h0.36
		c0.06,0,0.08,0.03,0.07,0.08L10.1,12.95z"/>
	<path class="st0" d="M9.87,6.61c0.09,0.07,0.18,0.12,0.29,0.09c0.49-0.13,0.73-0.66,0.53-1.18c-0.02-0.06-0.06-0.07-0.12-0.05
		c-0.38,0.1-0.78,0.18-1.13,0.38c-0.36,0.21-0.61,0.49-0.62,0.9c0,0.39,0.21,0.69,0.55,0.83c0.29,0.12,0.66,0.04,0.88-0.18
		c0.07-0.07,0.12-0.15,0.13-0.25c0.01-0.13-0.05-0.2-0.17-0.24c-0.12-0.04-0.19,0-0.24,0.12C9.89,7.23,9.7,7.29,9.52,7.21
		C9.33,7.12,9.24,6.9,9.32,6.72C9.42,6.49,9.66,6.44,9.87,6.61z"/>
	<path class="st0" d="M6,7.22C5.82,7.29,5.64,7.23,5.55,7.04C5.49,6.91,5.41,6.89,5.29,6.92C5.17,6.96,5.14,7.06,5.16,7.18
		c0.01,0.1,0.07,0.18,0.14,0.24c0.41,0.4,1.14,0.23,1.35-0.31c0.16-0.42,0.02-0.84-0.39-1.15C5.95,5.74,5.59,5.63,5.23,5.54
		C4.82,5.43,4.78,5.47,4.78,5.9c0,0.27,0.09,0.49,0.31,0.66c0.23,0.18,0.36,0.18,0.6,0.03c0.05-0.03,0.11-0.07,0.17-0.07
		C6.03,6.5,6.18,6.6,6.22,6.75C6.27,6.94,6.18,7.15,6,7.22z"/>
</g>
</svg>
